<?xml version="1.0" encoding="UTF-8"?>
<svg width="33px" height="39px" viewBox="0 0 33 39" version="1.1" xmlns="http://www.w3.org/2000/svg" xmlns:xlink="http://www.w3.org/1999/xlink">
    <title>stethoscope (3)</title>
    <defs>
        <linearGradient x1="0%" y1="50%" x2="97.6941167%" y2="50%" id="linearGradient-1">
            <stop stop-color="#44CFB9" offset="0%"></stop>
            <stop stop-color="#1EC2C9" offset="100%"></stop>
        </linearGradient>
        <linearGradient x1="0%" y1="50%" x2="97.6941167%" y2="50%" id="linearGradient-2">
            <stop stop-color="#44CFB9" offset="0%"></stop>
            <stop stop-color="#1EC2C9" offset="100%"></stop>
        </linearGradient>
    </defs>
    <g id="Page-1" stroke="none" stroke-width="1" fill="none" fill-rule="evenodd">
        <g id="iPhone-12-Mini" transform="translate(-37.000000, -353.000000)" fill-rule="nonzero">
            <g id="Group-7" transform="translate(22.000000, 353.000000)">
                <g id="stethoscope-(3)" transform="translate(15.000000, 0.000000)">
                    <path d="M26.4185013,22.9567925 L26.4185013,28.4403962 C26.4185013,30.299248 25.6749784,32.018717 24.3273154,33.3663801 C23.0726038,34.6676119 21.3067035,35.4111348 19.4478518,35.4111348 C15.5907655,35.4111348 12.4772022,32.2975714 12.4772022,28.4404852 L12.4772022,20.586841 C14.9866253,20.3079865 17.3566658,19.1462264 19.122566,17.3803261 C21.213752,15.2891402 22.3755121,12.5008625 22.3755121,9.48025067 L22.3755121,2.88122911 C22.3755121,2.09118598 21.771372,1.48704582 20.9814178,1.48704582 L17.9608059,1.48704582 L17.9608059,4.2754124 L19.5873235,4.2754124 L19.5873235,9.48016173 C19.5873235,11.7572507 18.7043288,13.8484367 17.1708518,15.428434 C15.5908544,17.0084313 13.4531482,17.8914259 11.2225795,17.8914259 C6.62197035,17.8914259 2.85774663,14.1272911 2.85774663,9.52659299 L2.85774663,4.27532345 L4.39131267,4.27532345 L4.39131267,1.48704582 L1.46347439,1.48704582 C0.673431267,1.48704582 0.0693800539,2.09118598 0.0693800539,2.88114016 L0.0693800539,9.52650404 C0.0693800539,15.1494906 4.25175202,19.8431402 9.68892453,20.5866631 L9.68892453,28.4403073 C9.68892453,33.8309596 14.0571995,38.1992345 19.4478518,38.1992345 C22.0967466,38.1992345 24.5596496,37.1768571 26.3255499,35.3180054 C28.1844016,33.4591536 29.206779,31.0426819 29.206779,28.4403073 L29.206779,22.9567925 C28.7421105,23.0961752 28.2773531,23.1426954 27.8126846,23.1426954 C27.3480162,23.1426954 26.8832588,23.0497439 26.4185013,22.9567925 Z" id="Path" fill="#020288"></path>
                    <path d="M32.9709137,18.2167116 C32.9709137,15.3820027 30.6473935,13.0583935 27.8125957,13.0583935 C24.9777978,13.0583935 22.6543666,15.3820027 22.6543666,18.2167116 C22.6543666,20.586752 24.2343639,22.5849865 26.4185013,23.1891267 C26.8831698,23.3285094 27.3479272,23.3750296 27.8125957,23.3750296 C28.2772642,23.3750296 28.7420216,23.2820782 29.20669,23.1891267 C31.3909164,22.5849865 32.9709137,20.586752 32.9709137,18.2167116 Z" id="Path" fill="url(#linearGradient-1)"></path>
                    <g id="Group" transform="translate(4.180593, 0.000000)" fill="url(#linearGradient-2)">
                        <path d="M0.0247277628,4.36827493 C0.0247277628,5.15831806 0.628867925,5.76236927 1.4188221,5.76236927 C2.20877628,5.76236927 2.81291644,5.15822911 2.81291644,4.36827493 L2.81291644,1.39409434 C2.81291644,0.604140162 2.20886523,0 1.4188221,0 C0.628778976,0 0.0247277628,0.604140162 0.0247277628,1.39409434 L0.0247277628,1.48704582 L0.0247277628,4.27532345 L0.0247277628,4.36827493 Z" id="Path"></path>
                        <path d="M13.966027,1.39409434 C13.966027,0.604140162 13.3618868,0 12.5719326,0 C11.7819784,0 11.1778383,0.604140162 11.1778383,1.39409434 L11.1778383,4.36827493 C11.1778383,5.15831806 11.7819784,5.76236927 12.5719326,5.76236927 C13.3618868,5.76236927 13.966027,5.15822911 13.966027,4.36827493 L13.966027,4.27532345 L13.966027,1.48704582 L13.966027,1.39409434 Z" id="Path"></path>
                    </g>
                </g>
            </g>
        </g>
    </g>
</svg>